# xmcd
#
# Track frame offsets: 
#        150
#        5967
#        22071
#        36472
#        46180
#        60373
#        75869
#        96074
#        100047
#        116628
#        132166
#        143653
#        159806
#        175753
#        180201
#
# Disc length: 2654 seconds
#
# Revision: 0
# Processed by: cddbd v1.5.2PL0 Copyright (c) Steve Scherf et al.
# Submitted via: ExactAudioCopy v0.99pb4
#
DISCID=ad0a5c0f
DTITLE=Darden Smith - Marathon
DYEAR=1900
DGENRE=
TTITLE0=Marathon
TTITLE1=Sierra Diablo
TTITLE2=Bull By The Horns
TTITLE3=Vertigo
TTITLE4=Don't It Go To Show
TTITLE5=Make It Back To You
TTITLE6=Nortal Coil
TTITLE7=Marathon Sky
TTITLE8=Truth Of The Rooster
TTITLE9=Taht Water
TTITLE10=Over My Beating Heart
TTITLE11=Escalator
TTITLE12=75 Miles Of Nothing
TTITLE13=Tinaja
TTITLE14=No One Gets Out Of Here
EXTD=
EXTT0=
EXTT1=
EXTT2=
EXTT3=
EXTT4=
EXTT5=
EXTT6=
EXTT7=
EXTT8=
EXTT9=
EXTT10=
EXTT11=
EXTT12=
EXTT13=
EXTT14=
PLAYORDER=
